<svg width="26" height="26" viewBox="0 0 26 26" fill="none" xmlns="http://www.w3.org/2000/svg">
<path d="M21.3182 25.75C21.7866 25.75 22.1469 25.3392 22.1469 24.8052V14.7407H24.3088C25.1014 14.7407 25.75 14.0013 25.75 13.0976C25.75 12.5635 25.5338 12.1117 25.2095 11.8241L22.3991 9.03071V4.42985C22.3991 3.89582 22.0028 3.44393 21.5344 3.44393H19.7689C19.3005 3.44393 18.9041 3.89582 18.9041 4.42985V5.58004L13.9319 0.650523C13.3914 0.116492 12.5988 0.116492 12.0583 0.650523L0.744619 11.8652C0.276219 12.3171 0.132093 13.0154 0.348278 13.6727C0.564463 14.33 1.10493 14.7407 1.68142 14.7407H3.84327V24.8052C3.84327 25.3392 4.20357 25.75 4.67198 25.75H9.57217V18.4379C9.57217 17.4109 10.2928 16.5482 11.2296 16.5482H14.8327C15.7334 16.5482 16.4901 17.3698 16.4901 18.4379V25.75H21.3182Z" fill="#1D91D2"/>
</svg>
