<svg width="32" height="32" viewBox="0 0 32 32" fill="none" xmlns="http://www.w3.org/2000/svg">
<g clip-path="url(#clip0_34_91)">
<rect width="32" height="32" rx="6" fill="#0F608E"/>
<g filter="url(#filter0_f_34_91)">
<circle cx="16" cy="16" r="12" fill="#1D91D2"/>
</g>
<path fill-rule="evenodd" clip-rule="evenodd" d="M14.752 3.20001C14.2925 3.20001 13.92 3.57012 13.92 4.02668V4.85335H13.088V8.16001C12.169 8.16001 11.424 8.90023 11.424 9.81335V10.64H20.576V9.81335C20.576 8.90023 19.831 8.16001 18.912 8.16001V7.33335H20.576V6.92001H22.0677L22.7778 7.6256L22.4836 7.91789L23.3156 8.74455L23.6098 8.45228L24.1981 7.86774L24.1981 7.86772L24.4922 7.57547L23.6602 6.7488L23.3661 7.04105L22.4123 6.09335H20.576V5.68001H18.912V4.85335H18.08V4.02668C18.08 3.57012 17.7075 3.20001 17.248 3.20001H14.752ZM13.92 11.4667C14.839 11.4667 15.584 12.2069 15.584 13.12V22.1922C14.7563 21.222 13.4743 20.658 12.155 20.9857C11.2422 21.2124 10.5504 21.7576 10.0883 22.3097C9.85662 22.5864 9.67746 22.8709 9.55354 23.1294C9.43445 23.3779 9.35003 23.6364 9.34401 23.8554L10.1757 23.878C10.1771 23.8262 10.2066 23.6895 10.3047 23.4848C10.398 23.2903 10.5392 23.0638 10.7279 22.8383C11.1065 22.386 11.6553 21.9619 12.3568 21.7877C13.7351 21.4453 15.1918 22.4621 15.584 23.9195V24.6933C15.584 26.5196 14.094 28 12.256 28C11.0093 28 9.92281 27.319 9.35268 26.3109C9.21465 26.3344 9.07276 26.3467 8.92798 26.3467C7.54947 26.3467 6.43198 25.2363 6.43198 23.8667C6.43198 23.4247 6.54834 23.0097 6.75229 22.6504C6.05932 22.2097 5.59998 21.4381 5.59998 20.56C5.59998 19.8533 5.89746 19.2157 6.3748 18.764C6.65789 18.6149 7.07372 18.4933 8.09599 18.4933C9.12825 18.4933 10.176 19.4323 10.176 20.56H11.008C11.008 18.9484 9.55968 17.6667 8.09599 17.6667C7.36172 17.6667 6.87204 17.7258 6.49986 17.8302C6.45547 17.6451 6.43198 17.452 6.43198 17.2533C6.43198 16.1285 7.18567 15.1786 8.21867 14.8749C8.52026 15.9795 9.36382 16.84 10.592 16.84C11.8874 16.84 12.4215 16.6559 12.8923 16.364L12.4517 15.6627C12.1567 15.8457 11.7926 16.0133 10.592 16.0133C9.76767 16.0133 9.10815 15.3678 8.95946 14.3784C9.14983 13.1964 10.1808 12.2933 11.424 12.2933C11.6228 12.2933 11.8162 12.3164 12.0015 12.3601C12.4594 11.8141 13.1488 11.4667 13.92 11.4667ZM16.416 13.12C16.416 12.2069 17.161 11.4667 18.08 11.4667C18.8511 11.4667 19.5406 11.8141 19.9984 12.3601C20.1838 12.3164 20.3772 12.2933 20.576 12.2933C21.8192 12.2933 22.8501 13.1964 23.0405 14.3784C22.8918 15.3678 22.2323 16.0133 21.408 16.0133C20.2074 16.0133 19.8432 15.8457 19.5482 15.6627L19.1077 16.364C19.5784 16.6559 20.1126 16.84 21.408 16.84C22.6361 16.84 23.4797 15.9795 23.7813 14.8749C24.8143 15.1786 25.568 16.1285 25.568 17.2533C25.568 17.452 25.5445 17.6451 25.5001 17.8302C25.1279 17.7258 24.6382 17.6667 23.904 17.6667C22.4403 17.6667 20.992 18.9484 20.992 20.56H21.824C21.824 19.4323 22.8717 18.4933 23.904 18.4933C24.9262 18.4933 25.3421 18.6149 25.6251 18.764C26.1025 19.2157 26.4 19.8533 26.4 20.56C26.4 21.4381 25.9406 22.2097 25.2477 22.6504C25.4516 23.0097 25.568 23.4247 25.568 23.8667C25.568 25.2363 24.4505 26.3467 23.072 26.3467C22.9272 26.3467 22.7853 26.3344 22.6473 26.3109C22.0771 27.319 20.9906 28 19.744 28C17.906 28 16.416 26.5196 16.416 24.6933V23.9195C16.8082 22.4621 18.2648 21.4453 19.6432 21.7877C20.3446 21.9619 20.8934 22.386 21.272 22.8383C21.4607 23.0638 21.602 23.2903 21.6952 23.4848C21.7933 23.6895 21.8228 23.8262 21.8243 23.878L22.6559 23.8554C22.6499 23.6364 22.5655 23.3779 22.4464 23.1294C22.3225 22.8709 22.1433 22.5864 21.9117 22.3097C21.4496 21.7576 20.7578 21.2124 19.8449 20.9857C18.5257 20.658 17.2437 21.222 16.416 22.1922V13.12Z" fill="white"/>
</g>
<defs>
<filter id="filter0_f_34_91" x="-11" y="-11" width="54" height="54" filterUnits="userSpaceOnUse" color-interpolation-filters="sRGB">
<feFlood flood-opacity="0" result="BackgroundImageFix"/>
<feBlend mode="normal" in="SourceGraphic" in2="BackgroundImageFix" result="shape"/>
<feGaussianBlur stdDeviation="7.5" result="effect1_foregroundBlur_34_91"/>
</filter>
<clipPath id="clip0_34_91">
<rect width="32" height="32" rx="6" fill="white"/>
</clipPath>
</defs>
</svg>
