<svg width="24" height="24" viewBox="0 0 24 24" fill="none" xmlns="http://www.w3.org/2000/svg">
<path d="M0 1C0 0.447715 0.447715 0 1 0H23C23.5523 0 24 0.447715 24 1V5C24 5.55228 23.5523 6 23 6H1C0.447716 6 0 5.55228 0 5V1Z" fill="#1D91D2"/>
<path d="M0 19C0 18.4477 0.447715 18 1 18H23C23.5523 18 24 18.4477 24 19V23C24 23.5523 23.5523 24 23 24H1C0.447716 24 0 23.5523 0 23V19Z" fill="#1D91D2"/>
<path d="M0 10C0 9.44772 0.447715 9 1 9H23C23.5523 9 24 9.44772 24 10V14C24 14.5523 23.5523 15 23 15H1C0.447716 15 0 14.5523 0 14V10Z" fill="#1D91D2"/>
</svg>
