<svg width="30" height="30" viewBox="0 0 30 30" fill="none" xmlns="http://www.w3.org/2000/svg">
<path d="M6.55872 14.9404C6.55872 19.5881 10.3325 23.3619 14.9802 23.3619C19.6279 23.3619 23.4017 19.5881 23.4017 14.9404C23.4017 10.2927 19.6279 6.51892 14.9802 6.51892C10.3325 6.51892 6.55872 10.2927 6.55872 14.9404ZM20.8594 14.4637C21.1374 17.7211 18.754 20.5812 15.4966 20.8593C12.2392 21.1374 9.37912 18.7539 9.10105 15.4966C8.82298 12.2392 11.2064 9.37905 14.4638 9.10098C17.7212 8.78319 20.5813 11.2064 20.8594 14.4637Z" fill="#1D91D2"/>
<path d="M26.5399 19.6278L27.9302 19.5881C28.248 19.5881 28.6055 19.31 28.685 18.9922L29.1616 16.7677C29.2014 16.4499 29.0027 16.0527 28.7247 15.9335L27.4535 15.3376C27.1754 15.1787 26.9371 14.8212 26.8974 14.5034C26.8974 14.5034 26.8974 14.3445 26.8576 13.9473C26.8576 13.8281 26.8576 13.8281 26.8576 13.8281C26.8576 13.6692 27.0563 13.4309 27.3343 13.272L28.5261 12.5172C28.8041 12.3583 28.963 11.9611 28.8836 11.6433L28.1685 9.4982C28.0494 9.18041 27.6919 8.98179 27.3741 8.98179L25.9837 9.10096C25.6659 9.14068 25.2687 8.94206 25.1098 8.70372C24.9509 8.46537 24.6728 7.63119 24.8317 7.35312L25.4673 6.12166C25.6262 5.84359 25.5468 5.40664 25.3084 5.1683L23.64 3.65877C23.4017 3.46015 22.9647 3.46016 22.6866 3.61905L21.5346 4.41353C21.2566 4.61215 20.8593 4.65188 20.5813 4.49299C20.3429 4.37381 19.6676 3.77794 19.6279 3.46015L19.5882 2.06981C19.5882 1.75202 19.3101 1.39452 18.9923 1.31507L16.7678 0.838375C16.45 0.798651 16.0527 0.997261 15.9336 1.27533L15.3377 2.5465C15.1788 2.82457 14.8213 3.06292 14.5035 3.10265C14.5035 3.10265 14.3446 3.10264 13.9474 3.14236C13.8282 3.14236 13.8282 3.14236 13.8282 3.14236C13.6693 3.14236 13.4309 2.94374 13.2721 2.66567L12.5173 1.47395C12.3584 1.19588 11.9612 1.037 11.6434 1.11645L9.49827 1.83147C9.18048 1.95065 8.98185 2.30816 8.98185 2.62595L9.10103 4.01629C9.14076 4.33409 8.94214 4.73133 8.70379 4.89023C8.46545 5.04912 7.63125 5.32719 7.35318 5.1683L6.12173 4.5327C5.84367 4.3738 5.4067 4.45326 5.16836 4.69161L3.65884 6.36002C3.46022 6.59836 3.46022 7.03531 3.61911 7.31338L4.41359 8.46538C4.61221 8.74345 4.65194 9.14068 4.49305 9.41875C4.37388 9.65709 3.77801 10.3324 3.46022 10.3721L2.06988 10.4118C1.75209 10.4118 1.39458 10.6899 1.31513 11.0077L0.838435 13.2323C0.798711 13.5501 0.997334 13.9473 1.2754 14.0665L2.54657 14.6623C2.82464 14.8212 3.06298 15.1787 3.10271 15.4965C3.10271 15.4965 3.10271 15.6554 3.14243 16.0527C3.14243 16.1718 3.14243 16.1718 3.14243 16.1718C3.14243 16.3307 2.94381 16.5691 2.66574 16.728L1.47402 17.4827C1.19595 17.6416 1.03706 18.0388 1.11651 18.3566L1.83154 20.5017C1.95071 20.8195 2.30822 21.0182 2.62601 21.0182L4.01635 20.899C4.33415 20.8593 4.73139 21.0579 4.89029 21.2962C5.04918 21.5346 5.32726 22.3688 5.16836 22.6469L4.53277 23.8783C4.37388 24.1564 4.45332 24.5933 4.69167 24.8317L6.36008 26.3412C6.59842 26.5398 7.03539 26.5398 7.31345 26.3809L8.46545 25.5864C8.74351 25.3878 9.14075 25.3481 9.41882 25.507C9.65716 25.6261 10.3325 26.222 10.3722 26.5398L10.4119 27.9301C10.4119 28.2479 10.69 28.6054 11.0078 28.6849L13.2323 29.1616C13.5501 29.2013 13.9474 29.0027 14.0665 28.7246L14.6624 27.4534C14.8213 27.1754 15.1788 26.937 15.4966 26.8973C15.4966 26.8973 15.6555 26.8973 16.0527 26.8576C16.1719 26.8576 16.1719 26.8576 16.1719 26.8576C16.3308 26.8576 16.5691 27.0562 16.728 27.3343L17.4828 28.526C17.6417 28.8041 18.0389 28.9629 18.3567 28.8835L20.5018 28.1685C20.8196 28.0493 21.0182 27.6918 21.0182 27.374L20.899 25.9837C20.8593 25.6659 21.0579 25.2686 21.2963 25.1097C21.5346 24.9508 22.3688 24.6728 22.6469 24.8317L23.8783 25.4672C24.1564 25.6261 24.5934 25.5467 24.8317 25.3083L26.3412 23.6399C26.5399 23.4016 26.5399 22.9646 26.381 22.6866L25.5865 21.5346C25.3879 21.2565 25.3481 20.8593 25.507 20.5812C25.6659 20.3031 26.2221 19.6278 26.5399 19.6278ZM14.9802 24.5536C9.69689 24.5536 5.36698 20.2237 5.36698 14.9404C5.36698 9.6571 9.69689 5.32718 14.9802 5.32718C20.2635 5.32718 24.5934 9.6571 24.5934 14.9404C24.5934 20.2634 20.3032 24.5536 14.9802 24.5536Z" fill="#1D91D2"/>
</svg>
