<svg width="34" height="34" viewBox="0 0 34 34" fill="none" xmlns="http://www.w3.org/2000/svg">
<path d="M29.9437 12.2512C29.0734 12.0735 28.2393 12.5712 28.0217 13.4246L26.1723 21.2467L12.3199 21.1045L8.98376 8.02016C8.87497 7.59349 8.58486 7.23795 8.22224 7.02461L5.21242 5.38907C4.4509 4.96241 3.4718 5.24685 3.03665 5.99351C2.6015 6.74017 2.8916 7.70016 3.65312 8.12682L6.08273 9.44237L9.49144 22.7756L7.67829 24.1978C7.46072 24.3756 7.31567 24.6245 7.31567 24.9089V27.1489C7.31567 27.6467 7.71456 28.0378 8.22224 28.0378L10.7969 28.0733C10.4343 28.3933 10.2167 28.8556 10.2167 29.3889C10.2167 30.3844 11.0145 31.1666 12.0298 31.1666C13.0452 31.1666 13.843 30.3844 13.843 29.3889C13.843 28.8911 13.6254 28.4644 13.299 28.1089L25.302 28.2867C25.0482 28.6067 24.9031 28.9622 24.9031 29.3889C24.9031 30.3844 25.7009 31.1666 26.7163 31.1666C27.7316 31.1666 28.5294 30.3844 28.5294 29.3889C28.5294 28.9978 28.3844 28.6422 28.1668 28.3222L29.7261 28.3578C30.2338 28.3578 30.6327 27.9667 30.6327 27.4689C30.6327 26.9711 30.2338 26.58 29.7261 26.58L9.12881 26.2956V25.3711L10.6518 24.1978C10.7969 24.2334 10.942 24.2689 11.087 24.2689L27.4415 24.4111C28.1668 24.4111 28.8195 23.9134 29.0008 23.2023L31.1041 14.1357C31.3579 13.2823 30.814 12.429 29.9437 12.2512Z" fill="#1D91D2"/>
<path fill-rule="evenodd" clip-rule="evenodd" d="M19.2649 2.83331C18.255 2.83331 17.4363 3.65202 17.4363 4.66194V5.70204H14.4818C13.6897 5.70204 13.0475 6.34422 13.0475 7.1364C13.0475 7.92857 13.6897 8.57075 14.4818 8.57075H14.5105V9.28792H14.4818C13.6897 9.28792 13.0475 9.93011 13.0475 10.7223C13.0475 11.5145 13.6897 12.1566 14.4818 12.1566H14.5105V16.4597H14.4818C13.6897 16.4597 13.0475 17.1019 13.0475 17.8941C13.0475 18.6862 13.6897 19.3284 14.4818 19.3284H24.0478C24.84 19.3284 25.4821 18.6862 25.4821 17.8941C25.4821 17.1019 24.84 16.4597 24.0478 16.4597H24.0194V12.1566H24.0478C24.84 12.1566 25.4821 11.5145 25.4821 10.7223C25.4821 9.93011 24.84 9.28792 24.0478 9.28792H24.0194V8.57075H24.0478C24.84 8.57075 25.4821 7.92857 25.4821 7.1364C25.4821 6.34422 24.84 5.70204 24.0478 5.70204H21.0935V4.66194C21.0935 3.65202 20.2748 2.83331 19.2649 2.83331Z" fill="#1D91D2"/>
</svg>
